<svg xmlns="http://www.w3.org/2000/svg" viewBox="0 0 918.88 1024"><path d="M459.89,1024q-50.76,0-82.21-34.54t-31.49-93.13c0-5.26.15-10.5.46-15.75s.72-10.77,1.29-16.62q6.1-46.34,20.55-79.57t30.17-65.15q15.78-31.9,28-73t14.87-103.18Q389,576.28,359.32,607.32t-49.4,60.78q-19.69,29.71-41.12,59t-58.14,57.28A73.39,73.39,0,0,1,197.1,794c-4.38,2.33-8.88,5-13.55,7.86q-51.62,29.75-96.62,19.25T16.52,767.79q-25.35-43.74-11.8-88.33t65.16-74.33a126.69,126.69,0,0,1,13.55-7.44q6.54-3,15.3-6.55,42.81-17.49,78.69-22.3t71.72-6.57q35.85-1.74,77.4-11.8t96.62-38.91q-55.11-28.85-96.62-38.92t-77.4-11.8q-35.89-1.74-71.72-6.12T98.73,432.86a105.09,105.09,0,0,1-15.3-7.44c-4.38-2.62-8.91-5.09-13.55-7.42Q18.25,389.14,4.72,344.1t11.8-87.89q25.37-43.71,70.41-53.78t96.62,18.81c4.67,2.34,9.17,4.8,13.55,7.44a95,95,0,0,1,13.56,10q36.75,28.86,58.14,57.73T309.92,355q19.68,29.75,49.4,61.22t82.21,63.83q-2.62-61.21-14.87-102.76t-28-73.44q-15.74-31.9-30.17-64.71T347.94,160q-.85-9.6-1.29-17.05c-.31-4.94-.46-10.06-.46-15.3q0-59.46,31.49-93.57T459.89,0q49.83,0,81.33,34.1t31.46,93.57V143A95.12,95.12,0,0,1,570.93,160q-6.1,46.36-20.54,79.15t-30.18,64.71q-15.74,31.92-28,73.44T477.37,480.08q52.49-32.34,82.21-63.83T609,355q19.69-29.71,41.09-58.58t58.15-57.73a84.13,84.13,0,0,1,14-10c4.64-2.64,9-5.1,13.12-7.44q51.58-28.86,96.62-18.81t70.38,53.78q25.36,42.85,11.81,87.89T849,418c-4.09,2.33-8.45,4.8-13.12,7.42a132.24,132.24,0,0,1-15.73,7.44q-42.85,17.5-78.72,21.86t-71.69,6.12q-35.89,1.76-77.4,11.8t-96.62,38.92q55.07,28.86,96.62,38.91t77.4,12.25q35.85,2.19,71.69,6.56t78.72,21.86q8.73,3.51,15.73,6.55A73.52,73.52,0,0,1,849,605.13q51.59,29.75,65.14,74.33t-11.81,88.33Q877,810.63,832,821.13t-96.62-19.25A101.86,101.86,0,0,0,722.23,794a67.33,67.33,0,0,1-14-9.63q-36.72-28-58.15-57.28T609,668.1q-19.68-29.73-49.4-60.78t-82.21-64.27q2.63,62.09,14.88,103.18t28,73q15.74,31.93,30.18,65.15T570.93,864a84,84,0,0,1,1.75,16.62v15.75q0,58.59-31.46,93.13T459.89,1024Z" fill="#e6e6e6"/></svg>